<?xml version="1.0" encoding="UTF-8"?>
<!-- Generator: Adobe Illustrator 19.2.1, SVG Export Plug-In . SVG Version: 6.00 Build 0)  -->
<svg xmlns="http://www.w3.org/2000/svg" xmlns:xlink="http://www.w3.org/1999/xlink" xmlns:dc="http://purl.org/dc/elements/1.1/" xmlns:cc="http://creativecommons.org/ns#" xmlns:rdf="http://www.w3.org/1999/02/22-rdf-syntax-ns#" version="1.1" id="DESIGNS" x="100px" y="100px" width="32px" height="32px" viewBox="0 0 32 32" style="enable-background:new 0 0 32 32;" xml:space="preserve">
<title property="dc:title">to eat</title><desc property="dc:description">An icon for "eat" from the Cubies series on to [icon]. Downloaded from http://www.toicon.com/icons/cubies_eat by 24.16.215.234 on 2020-11-19. Licensed CC-BY, see http://toicon.com/license/ for details.</desc>
<g>
	<path class="cubies_negentien" d="M31,10H1c-0.552,0-1-0.448-1-1V3c0-1.657,1.343-3,3-3h26c1.657,0,3,1.343,3,3v6   C32,9.552,31.552,10,31,10z M0,27v2c0,1.657,1.343,3,3,3h26c1.657,0,3-1.343,3-3v-2c0-0.552-0.448-1-1-1H1C0.448,26,0,26.448,0,27z   " style="fill: #F2C99E;"/>
	<path class="cubies_twintig" d="M29,10H1c-0.552,0-1-0.448-1-1V3c0-1.657,1.343-3,3-3h24c1.657,0,3,1.343,3,3v6   C30,9.552,29.552,10,29,10z M0,27v2c0,1.657,1.343,3,3,3h24c1.657,0,3-1.343,3-3v-2c0-0.552-0.448-1-1-1H1C0.448,26,0,26.448,0,27z   " style="fill: #F9E0BD;"/>
	<path class="cubies_dertien" d="M31,14H1c-0.552,0-1-0.448-1-1v-2c0-0.552,0.448-1,1-1h30c0.552,0,1,0.448,1,1v2   C32,13.552,31.552,14,31,14z" style="fill: #A4C83F;"/>
	<path class="cubies_veertien" d="M29,14H1c-0.552,0-1-0.448-1-1v-2c0-0.552,0.448-1,1-1h28c0.552,0,1,0.448,1,1v2   C30,13.552,29.552,14,29,14z" style="fill: #BCD269;"/>
	<path class="cubies_eenentwintig" d="M31,26H1c-0.552,0-1-0.448-1-1v-6c0-0.552,0.448-1,1-1h30c0.552,0,1,0.448,1,1v6   C32,25.552,31.552,26,31,26z" style="fill: #C9483A;"/>
	<path class="cubies_tweeentwintig" d="M29,26H1c-0.552,0-1-0.448-1-1v-6c0-0.552,0.448-1,1-1h28c0.552,0,1,0.448,1,1v6   C30,25.552,29.552,26,29,26z" style="fill: #D97360;"/>
	<path class="cubies_achtien" d="M31,18H1c-0.552,0-1-0.448-1-1v-2c0-0.552,0.448-1,1-1h30c0.552,0,1,0.448,1,1v2   C32,17.552,31.552,18,31,18z" style="fill: #EDB57E;"/>
	<path class="cubies_negentien" d="M29,18H1c-0.552,0-1-0.448-1-1v-2c0-0.552,0.448-1,1-1h28c0.552,0,1,0.448,1,1v2   C30,17.552,29.552,18,29,18z" style="fill: #F2C99E;"/>
	<path class="cubies_negentien" d="M13,5c0,0.552-0.448,1-1,1s-1-0.448-1-1s0.448-1,1-1S13,4.448,13,5z M9,2C8.448,2,8,2.448,8,3   s0.448,1,1,1s1-0.448,1-1S9.552,2,9,2z M15,2c-0.552,0-1,0.448-1,1s0.448,1,1,1s1-0.448,1-1S15.552,2,15,2z M18,4   c-0.552,0-1,0.448-1,1s0.448,1,1,1s1-0.448,1-1S18.552,4,18,4z M21,2c-0.552,0-1,0.448-1,1s0.448,1,1,1s1-0.448,1-1S21.552,2,21,2z   " style="fill: #F2C99E;"/>
</g>
<metadata><work rdf:about=""><format>image/svg+xml</format><type rdf:resource="http://purl.org/dc/dcmitype/StillImage"/><license rdf:resource="http://creativecommons.org/licenses/by/4.0/"/><attributionname>Shannon E Thomas</attributionname><attributionurl>http://www.toicon.com/icons/cubies_eat</attributionurl></work></metadata></svg>
